<?xml version="1.0" standalone="no"?> <!DOCTYPE svg PUBLIC "-//W3C//DTD SVG 1.0//EN" "http://www.w3.org/TR/2001/REC-SVG-20010904/DTD/svg10.dtd" > <svg xmlns="http://www.w3.org/2000/svg" width="100%" height="100%">
<defs >
<font horiz-adv-x="432" ><font-face
    font-family="Slate Pro"
    units-per-em="1000"
    panose-1="2 0 8 3 4 0 0 2 0 4"
    ascent="655"
    descent="-345"
    alphabetic="0" />
<missing-glyph horiz-adv-x="500" d="M12 0V665H487V0H12ZM88 618L250 375L411 618H88ZM60 575V91L221 333L60 575ZM440 575L278 333L440 90V575ZM411 48L250 290L88 48H411Z" />
<glyph unicode=" " glyph-name="space" horiz-adv-x="170" />
<glyph unicode="!" glyph-name="exclam" horiz-adv-x="318" d="M242 635L220 209H98L76 635H242ZM245 108T245 72T221 13T159 -10T97 13T73 72T97 131T159 155T221 132Z" />
<glyph unicode="&quot;" glyph-name="quotedbl" horiz-adv-x="505" d="M429 650L407 391H304L282 650H429ZM223 650L201 391H98L76 650H223Z" />
<glyph unicode="#" glyph-name="numbersign" horiz-adv-x="569" d="M549 395H444L414 254H508V168H395L360 1H269L305 168H196L161 1H71L106 168H20V254H125L155 395H61V481H174L209 648H300L264 481H373L408 648H498L463 481H549V395ZM354 395H245L215 254H324L354 395Z" />
<glyph unicode="$" glyph-name="dollar" horiz-adv-x="569" d="M524 198Q524 148 503 111T455 54Q401 12 328 7L326 -76H243L246 5Q192 8 134 32T40 93L110 196Q134 170 173 151T248 127L251 259L213 272Q156 294 132 312Q63 363 63 449Q63 537 137 590Q189 628
262 631L263 690H345L344 629Q387 625 436 605T512 556L453 457Q402 505 340 513L338 385L372 373Q524 317 524 198ZM261 521Q237 521 218 508T198 468Q198 450 209 438T230 420T260 409L261 521ZM388 176Q388 214 344 232L330 238L327 123Q353 123 370 137T388
176Z" />
<glyph unicode="%" glyph-name="percent" horiz-adv-x="855" d="M821 182Q821 95 775 43T653 -10Q576 -10 530 42T484 182Q484 270 530 322T652 375Q729 375 775 323T821 182ZM653 614L265 -10L202 31L590 655L653 614ZM371 550T371 463T325 324T203 271Q126 271
80 323T34 463T80 603T202 656Q279 656 325 603ZM711 182Q711 230 697 259T653 288T609 259T594 182T608 106T652 77T696 106T711 182ZM261 416T261 463T247 539T203 569T159 540T144 463T158 387T202 358T246 387Z" />
<glyph unicode="&amp;" glyph-name="ampersand" horiz-adv-x="700" d="M694 0H510L463 51Q436 32 421 23T360 1T258 -11Q163 -11 99 37T34 168Q34 200 44 227T66 272T98 305T129 327T157 342L178 353L170 362L164 368Q157 375 155 377T147 387T137 400T129 413T120
430T114 447T110 467T108 489Q108 562 165 603T309 645Q392 645 448 604T505 497Q505 455 486 421T447 372T398 338L384 330L475 232Q516 281 540 361L658 313Q648 274 619 222T562 140L694 0ZM372 495Q372 520 355 536T310 552Q283 552 266 536T249 497Q249 469
287 431L310 406L325 417Q372 448 372 495ZM377 143L251 276L240 268Q188 233 188 185Q188 150 214 128T281 106Q344 106 377 143Z" />
<glyph unicode="&apos;" glyph-name="quotesingle" horiz-adv-x="299" d="M223 650L201 391H98L76 650H223Z" />
<glyph unicode="(" glyph-name="parenleft" horiz-adv-x="360" d="M321 -100L244 -163Q213 -138 183 -102T118 -11T62 119T40 278T61 436T117 567T182 657T244 718L321 655Q172 495 172 278Q172 60 321 -100Z" />
<glyph unicode=")" glyph-name="parenright" horiz-adv-x="360" d="M320 361T320 278T299 120T243 -11T178 -101T116 -163L39 -100Q188 60 188 278Q188 495 39 655L116 718Q147 692 177 657T242 567T298 437Z" />
<glyph unicode="*" glyph-name="asterisk" horiz-adv-x="428" d="M388 487L272 457L349 362L281 314L214 412L146 314L79 362L156 456L40 487L66 567L176 527L172 644H256L251 527L362 567L388 487Z" />
<glyph unicode="+" glyph-name="plus" horiz-adv-x="569" d="M519 260H343V83H226V260H50V376H226V553H343V376H519V260Z" />
<glyph unicode="," glyph-name="comma" horiz-adv-x="285" d="M113 166L235 127Q235 62 196 -8T102 -118L4 -74Q113 35 113 166Z" />
<glyph unicode="-" glyph-name="hyphen" horiz-adv-x="331" d="M301 184H30V296H301V184Z" />
<glyph unicode="." glyph-name="period" horiz-adv-x="285" d="M229 74Q229 38 205 15T142 -9Q104 -9 80 14T56 74T80 133T142 156T204 133T229 74Z" />
<glyph unicode="/" glyph-name="slash" horiz-adv-x="567" d="M512 668L136 -111L54 -71L430 708L512 668Z" />
<glyph unicode="0" glyph-name="zero" horiz-adv-x="569" d="M537 318Q537 168 471 79T285 -10T99 79T32 318Q32 467 98 556T284 645T470 556T537 318ZM382 228T382 318T359 465T285 523Q234 523 211 466T187 318T210 170T285 113Q335 113 358 170Z" />
<glyph unicode="1" glyph-name="one" horiz-adv-x="569" d="M398 0H242V472Q232 463 199 448Q162 431 138 425L102 533Q151 545 199 573Q258 608 271 636H398V0Z" />
<glyph unicode="2" glyph-name="two" horiz-adv-x="569" d="M524 0H34Q36 25 40 48T55 93T72 131T94 166T117 195T143 223T167 245T193 268L214 285Q221 291 240 306T267 329T291 349T313 372T329 394T341 418T345 442Q345 483 316 503T243 523Q170 523 100 453L32
552Q49 570 73 587T153 625T271 645Q374 645 435 591T497 451Q497 428 492 406T476 365T456 332T430 302T405 278T380 258T362 243Q357 239 338 224T307 198T280 174T254 146T238 122H524V0Z" />
<glyph unicode="3" glyph-name="three" horiz-adv-x="569" d="M509 181Q509 92 437 41T267 -10Q117 -10 29 85L100 183Q131 150 172 131T252 112Q295 112 325 133T356 194T327 253T254 273H177V388H255Q296 388 320 405T344 457T316 508T245 526Q173 526 110 472L53
572Q68 586 92 600T165 630T267 645Q362 645 427 602T493 479Q493 448 483 422T458 381T427 354T400 339T385 335Q395 333 403 330T433 316T469 289T496 245T509 181Z" />
<glyph unicode="4" glyph-name="four" horiz-adv-x="569" d="M549 127H473V0H318V127H13V243L287 635H473V244H549V127ZM318 243V509L137 243H318Z" />
<glyph unicode="5" glyph-name="five" horiz-adv-x="569" d="M523 209Q523 106 448 48T270 -10Q122 -10 29 78L100 178Q129 150 170 131T254 112Q303 112 336 136T369 210T336 283T254 307Q228 307 203 299T164 282L152 273L66 309L120 635H500V515H236L215 401Q250
415 304 415Q393 415 458 363T523 209Z" />
<glyph unicode="6" glyph-name="six" horiz-adv-x="569" d="M536 215Q536 117 473 54T296 -10Q172 -10 102 81Q42 160 42 304Q42 482 129 569Q205 645 326 645Q440 645 513 589L459 486Q443 500 407 514T327 529Q276 529 240 496Q191 452 191 358Q255 411 346
411Q423 411 479 358T536 215ZM386 162T386 205T362 274T292 301Q264 301 239 287T203 259L192 245Q192 187 218 147T292 106T362 134Z" />
<glyph unicode="7" glyph-name="seven" horiz-adv-x="569" d="M525 519L266 0H101L368 515H59V635H525V519Z" />
<glyph unicode="8" glyph-name="eight" horiz-adv-x="569" d="M532 175Q532 85 461 38T285 -10Q179 -10 108 37T36 174Q36 281 155 329Q55 365 55 475Q55 557 122 601T284 645Q380 645 447 602T514 476Q514 378 407 339Q459 323 495 281T532 175ZM367 468Q367
502 345 519T285 536T225 520T202 469Q202 436 230 416T298 387Q367 415 367 468ZM382 186Q382 250 265 280Q187 253 187 187Q187 147 215 125T284 102T353 124T382 186Z" />
<glyph unicode="9" glyph-name="nine" horiz-adv-x="569" d="M527 331Q527 154 440 67Q363 -10 243 -10Q130 -10 50 50L105 153Q131 133 169 120T240 107Q297 107 335 145Q378 188 378 278Q373 272 359 261T307 237T223 223Q144 223 89 276T33 420Q33 518 96 581T273
645Q398 645 467 553Q527 475 527 331ZM346 361Q360 371 377 392Q377 450 351 491T277 532T207 504T183 433T207 363T277 336Q313 336 346 361Z" />
<glyph unicode=":" glyph-name="colon" horiz-adv-x="285" d="M229 424T229 388T205 329T143 305Q104 305 80 328T56 387T80 446T142 470Q181 470 205 447ZM229 110T229 74T205 15T143 -9Q104 -9 80 14T56 73T80 132T142 156Q181 156 205 133Z" />
<glyph unicode=";" glyph-name="semicolon" horiz-adv-x="285" d="M230 424T230 388T206 329T144 305Q105 305 81 328T57 387T81 446T143 470Q182 470 206 447ZM235 127Q235 62 196 -8T102 -118L4 -74Q113 35 113 166L235 127Z" />
<glyph unicode="&lt;" glyph-name="less" horiz-adv-x="569" d="M519 75L50 254V370L519 550V425L188 312L519 200V75Z" />
<glyph unicode="=" glyph-name="equal" horiz-adv-x="569" d="M519 365H50V482H519V365ZM519 143H50V259H519V143Z" />
<glyph unicode="&gt;" glyph-name="greater" horiz-adv-x="569" d="M519 254L50 74V200L381 312L50 425V550L519 371V254Z" />
<glyph unicode="?" glyph-name="question" horiz-adv-x="463" d="M441 481Q441 392 363 337L295 288Q277 275 271 265T265 235V209H139L138 250Q136 288 144 310T184 356L242 397Q261 410 269 416T287 436T297 464Q297 489 276 505T209 521Q137 521 77 469L19
574Q100 645 232 645Q328 645 384 598T441 481ZM288 108T288 72T264 13T202 -10T140 13T116 72T140 131T202 155T264 132Z" />
<glyph unicode="@" glyph-name="at" horiz-adv-x="815" d="M764 282Q764 164 693 89Q638 32 560 32Q520 32 495 52T464 102Q459 92 447 79T408 52T350 37Q296 37 260 76T224 192Q224 302 294 370Q344 418 407 418Q479 418 507 372L529 408H604L545 181Q539 160
539 146Q539 103 581 103Q620 103 655 147T691 281Q691 384 618 452T421 521Q295 521 213 437T131 224T208 19T416 -58Q476 -58 530 -47T610 -24L634 -13L657 -68Q647 -74 627 -84T542 -110T408 -126Q249 -126 152 -31T55 228Q55 388 164 489T421 590Q586 590 685
484Q764 401 764 282ZM485 297Q485 309 467 327T419 346Q381 346 352 309Q315 261 315 195Q315 117 375 117Q398 117 423 139T458 194L485 297Z" />
<glyph unicode="A" glyph-name="A" horiz-adv-x="606" d="M614 0H446L409 120H185L148 0H-8L207 635H399L614 0ZM373 243L297 486L221 243H373Z" />
<glyph unicode="B" glyph-name="B" horiz-adv-x="600" d="M575 185Q575 91 499 40Q438 0 320 0H65V635H309Q422 635 472 603Q540 559 540 474Q540 426 512 390T432 340V338Q498 327 536 286T575 185ZM382 450Q382 486 356 503Q335 517 299 517H222V382H299Q337
382 356 397Q382 416 382 450ZM413 196Q413 240 378 261Q352 275 308 275H222V117H308Q354 117 378 131Q413 150 413 196Z" />
<glyph unicode="C" glyph-name="C" horiz-adv-x="594" d="M507 208L584 98Q581 94 576 87T549 61T503 28T434 2T343 -10Q207 -10 119 76T30 318Q30 471 123 558T347 645Q393 645 434 634T500 609T546 577T573 551T583 538L505 432Q503 435 499 440T481 458T452
482T410 500T357 508Q283 508 238 457T192 321Q192 235 237 184T356 132Q400 132 437 151T491 189L507 208Z" />
<glyph unicode="D" glyph-name="D" horiz-adv-x="662" d="M631 318Q631 161 530 74Q446 0 294 0H65V635H294Q444 635 530 561Q631 472 631 318ZM469 319Q469 417 419 467Q374 512 290 512H223V127H290Q374 127 419 172Q469 222 469 319Z" />
<glyph unicode="E" glyph-name="E" horiz-adv-x="536" d="M503 0H65V635H493V512H223V391H474V266H223V127H503V0Z" />
<glyph unicode="F" glyph-name="F" horiz-adv-x="500" d="M478 512H223V369H457V243H223V0H65V635H478V512Z" />
<glyph unicode="G" glyph-name="G" horiz-adv-x="669" d="M619 0H515L501 58Q499 55 495 51T476 35T441 14T388 -2T315 -10Q198 -10 114 77T30 317Q30 420 75 496T191 609T347 645Q504 645 593 536L505 441Q436 513 354 513Q286 513 239 464T192 320Q192 225 238
176T352 126Q390 126 419 136T458 158L468 168V242H360V358H619V0Z" />
<glyph unicode="H" glyph-name="H" horiz-adv-x="682" d="M616 0H458V265H223V0H65V635H223V392H458V635H616V0Z" />
<glyph unicode="I" glyph-name="I" horiz-adv-x="289" d="M224 0H65V635H224V0Z" />
<glyph unicode="J" glyph-name="J" horiz-adv-x="290" d="M66 16V635H225V16Q225 -77 175 -125Q127 -173 36 -173Q6 -173 -20 -168T-58 -157L-70 -152L-49 -44Q-27 -55 8 -55Q66 -55 66 16Z" />
<glyph unicode="K" glyph-name="K" horiz-adv-x="599" d="M604 0H421L278 253L223 190V0H65V635H223V386L414 635H598L379 376L604 0Z" />
<glyph unicode="L" glyph-name="L" horiz-adv-x="483" d="M469 0H65V635H223V128H469V0Z" />
<glyph unicode="M" glyph-name="M" horiz-adv-x="819" d="M765 0H609L605 429L476 0H334L206 429L201 0H54L74 635H275L409 188L544 635H744L765 0Z" />
<glyph unicode="N" glyph-name="N" horiz-adv-x="676" d="M611 0H458L215 410V0H65V635H230L462 247V635H611V0Z" />
<glyph unicode="O" glyph-name="O" horiz-adv-x="696" d="M665 468T665 318T580 79T348 -10T116 79T30 318T116 556T348 645T579 557ZM503 233T503 320T463 461T348 515T233 461T192 320T232 179T348 124T463 178Z" />
<glyph unicode="P" glyph-name="P" horiz-adv-x="576" d="M550 533T550 422T478 257Q414 209 301 209H223V0H65V635H301Q414 635 478 587Q550 533 550 422ZM392 372T392 422T358 497Q334 515 278 515H223V328H278Q332 328 357 346Q392 372 392 422Z" />
<glyph unicode="Q" glyph-name="Q" horiz-adv-x="696" d="M665 318Q665 249 647 193T601 105T556 58T526 38Q533 14 554 -13T600 -54L470 -139Q401 -99 379 -7Q364 -10 348 -10Q202 -10 116 79T30 318T116 556T348 645T579 557T665 318ZM503 233T503 320T463 461T348
515T233 461T192 320T232 179T348 124T463 178Z" />
<glyph unicode="R" glyph-name="R" horiz-adv-x="601" d="M598 0H418L287 233H223V0H65V635H316Q428 635 485 593Q560 539 560 440Q560 310 440 260L598 0ZM401 433Q401 475 371 498Q346 515 304 515H223V350H304Q346 350 371 367Q401 390 401 433Z" />
<glyph unicode="S" glyph-name="S" horiz-adv-x="535" d="M510 564L449 455Q420 481 372 501T283 521Q196 521 196 469Q196 434 254 413Q262 409 286 401T337 384T370 373Q423 351 451 327Q510 278 510 196Q510 104 440 47T256 -10Q187 -10 120 14T10 80L82 195Q115
166 164 144T258 122Q352 122 352 178Q352 195 339 208T317 226T289 237Q279 241 237 255T187 273Q133 292 100 319Q40 367 40 454Q40 546 116 600Q182 645 284 645Q352 645 413 620T510 564Z" />
<glyph unicode="T" glyph-name="T" horiz-adv-x="514" d="M508 511H336V0H178V511H6V635H508V511Z" />
<glyph unicode="U" glyph-name="U" horiz-adv-x="652" d="M434 245V635H592V252Q592 124 531 59Q465 -10 326 -10T121 59Q60 124 60 252V635H218V245Q218 185 243 159Q271 129 326 129T409 159Q434 185 434 245Z" />
<glyph unicode="V" glyph-name="V" horiz-adv-x="600" d="M598 635L390 0H210L2 635H169L306 170L443 635H598Z" />
<glyph unicode="W" glyph-name="W" horiz-adv-x="905" d="M895 635L732 0H560L452 445L345 0H173L10 635H172L269 186L372 635H533L636 186L733 635H895Z" />
<glyph unicode="X" glyph-name="X" horiz-adv-x="613" d="M617 0H434L307 229L179 0H-4L210 326L15 635H193L306 425L420 635H599L407 327L617 0Z" />
<glyph unicode="Y" glyph-name="Y" horiz-adv-x="587" d="M592 635L373 256V0H215V256L-5 635H170L294 379L418 635H592Z" />
<glyph unicode="Z" glyph-name="Z" horiz-adv-x="579" d="M552 0H27V108L343 512H40V635H539V523L230 128H552V0Z" />
<glyph unicode="[" glyph-name="bracketleft" horiz-adv-x="360" d="M316 -137H71V686H316V605H196V-56H316V-137Z" />
<glyph unicode="\" glyph-name="backslash" horiz-adv-x="567" d="M512 -71L430 -111L54 667L136 708L512 -71Z" />
<glyph unicode="]" glyph-name="bracketright" horiz-adv-x="360" d="M289 -137H44V-56H164V605H44V686H289V-137Z" />
<glyph unicode="^" glyph-name="asciicircum" horiz-adv-x="569" d="M519 318H384L285 525L185 318H50L219 635H350L519 318Z" />
<glyph unicode="_" glyph-name="underscore" horiz-adv-x="569" d="M569 -140H0V-76H569V-140Z" />
<glyph unicode="`" glyph-name="grave" horiz-adv-x="452" d="M332 530H224L120 661H262L332 530Z" />
<glyph unicode="a" glyph-name="a" horiz-adv-x="518" d="M495 0H333Q323 26 323 51Q264 -10 184 -10Q120 -10 72 25T24 137Q24 250 171 283Q234 297 318 297V313Q318 377 230 377Q154 377 85 334L46 438Q136 485 246 485T413 439Q472 390 472 293V113Q472 40
495 0ZM318 141V213Q284 213 246 207Q179 194 179 149Q179 120 196 106T239 92Q294 92 318 141Z" />
<glyph unicode="b" glyph-name="b" horiz-adv-x="580" d="M556 348T556 238T498 59T347 -10Q260 -10 210 62L197 0H56V654H210V412Q217 424 230 438T278 468T353 485Q445 485 500 417ZM399 183T399 239T374 332T303 369T231 332T205 239Q205 184 230 147T302 109T373
146Z" />
<glyph unicode="c" glyph-name="c" horiz-adv-x="468" d="M405 163L460 59Q391 -10 269 -10Q167 -10 96 54T24 237Q24 354 97 419T272 485Q328 485 374 468T436 437T458 415L402 315Q354 363 295 363Q245 363 212 331T178 240T211 149T295 116Q358 116 405 163Z" />
<glyph unicode="d" glyph-name="d" horiz-adv-x="580" d="M524 0H384L371 62L366 56Q362 50 359 47T350 37T338 26T324 15T306 5T285 -2T259 -8T230 -10Q138 -10 81 59T24 238T80 416T230 485Q271 485 304 469T350 438T370 412V654H524V0ZM375 183T375 239T350
332T279 369Q233 369 207 332T181 239T206 146T277 109T349 146Z" />
<glyph unicode="e" glyph-name="e" horiz-adv-x="516" d="M495 200H178Q180 151 213 127T295 102Q336 102 375 116T432 146L482 57Q479 54 474 50T450 34T409 13T350 -3T273 -10Q162 -10 93 55T24 237Q24 354 93 419T272 485Q377 485 436 418T495 240V200ZM350
293Q350 332 329 358T266 384T202 358T175 293H350Z" />
<glyph unicode="f" glyph-name="f" horiz-adv-x="322" d="M354 645L337 547Q308 558 279 558Q248 558 235 542Q224 530 224 494V475H328V364H224V0H71V364H13V475H71V512Q71 580 111 620Q155 663 242 663Q296 663 354 645Z" />
<glyph unicode="g" glyph-name="g" horiz-adv-x="572" d="M519 110Q519 -35 459 -97Q386 -173 255 -173Q191 -173 133 -156T40 -119L87 -12Q166 -56 247 -56Q312 -56 342 -26Q369 1 369 55V91Q361 78 348 64T302 35T230 19Q135 19 80 83T24 252Q24 356 81 420T232
485Q263 485 289 476T330 453T353 430T365 412L375 475H519V110ZM370 205T370 254T346 335T276 368T206 336T181 254Q181 204 205 172T275 140T345 172Z" />
<glyph unicode="h" glyph-name="h" horiz-adv-x="568" d="M518 0H364V268Q364 312 349 334T295 357Q258 357 236 332T209 274V0H55V654H209V402Q267 485 356 485Q518 485 518 300V0Z" />
<glyph unicode="i" glyph-name="i" horiz-adv-x="264" d="M217 641T217 605T193 547T132 524T71 546T47 604T71 662T132 685T193 663ZM209 0H55V475H209V0Z" />
<glyph unicode="j" glyph-name="j" horiz-adv-x="266" d="M218 641T218 605T195 547T134 524T73 546T48 604T72 662T133 685T194 663ZM210 4Q210 -89 173 -128Q132 -173 49 -173Q-5 -173 -47 -154L-30 -47Q-12 -53 11 -53Q32 -53 41 -44Q56 -30 56 14V475H210V4Z" />
<glyph unicode="k" glyph-name="k" horiz-adv-x="532" d="M537 0H362L253 179L209 133V0H55V654H209V304L354 475H530L355 291L537 0Z" />
<glyph unicode="l" glyph-name="l" horiz-adv-x="264" d="M209 0H55V654H209V0Z" />
<glyph unicode="m" glyph-name="m" horiz-adv-x="845" d="M795 0H641V272Q641 357 579 357Q545 357 526 331T502 275V0H348V272Q348 357 286 357Q252 357 233 331T209 275V0H55V475H200L209 402Q263 485 349 485Q454 485 486 397Q550 485 641 485Q715 485 755
439T795 306V0Z" />
<glyph unicode="n" glyph-name="n" horiz-adv-x="568" d="M518 0H364V268Q364 312 349 334T295 357Q258 357 236 332T209 274V0H55V475H200L209 402Q267 485 356 485Q518 485 518 300V0Z" />
<glyph unicode="o" glyph-name="o" horiz-adv-x="551" d="M527 353T527 238T459 57T276 -10T93 56T24 238Q24 352 92 418T275 485Q390 485 458 419ZM370 238Q370 296 346 333T276 371Q229 371 205 334T181 238Q181 179 205 142T275 104Q322 104 346 141T370 238Z" />
<glyph unicode="p" glyph-name="p" horiz-adv-x="580" d="M556 348T556 238T498 59T347 -10Q260 -10 210 62V-164H56V475H202L210 412Q217 424 230 438T278 468T353 485Q445 485 500 417ZM399 183T399 239T374 332T303 369T231 332T205 239Q205 184 230 147T302
109T373 146Z" />
<glyph unicode="q" glyph-name="q" horiz-adv-x="580" d="M524 -164H371V62L366 56Q362 50 359 47T350 37T338 26T324 15T306 5T285 -2T259 -8T230 -10Q138 -10 81 59T24 238T80 416T230 485Q271 485 304 469T350 438T370 412L380 475H524V-164ZM375 183T375 239T350
332T279 369Q233 369 207 332T181 239T206 146T277 109T349 146Z" />
<glyph unicode="r" glyph-name="r" horiz-adv-x="387" d="M380 480L363 335Q344 342 320 342Q288 342 265 327Q222 299 209 240V0H55V475H200L209 397Q226 433 262 459T342 485Q354 485 363 484T376 481L380 480Z" />
<glyph unicode="s" glyph-name="s" horiz-adv-x="450" d="M430 152Q430 80 376 36Q320 -10 215 -10Q150 -10 95 13T10 64L72 159Q103 131 147 115T220 99Q284 99 284 132Q284 158 215 175Q210 176 208 177Q153 193 130 202Q113 209 104 214T75 235T45 276T34 333Q34
402 88 444T236 486Q291 486 339 470T408 438L428 423L375 332Q312 381 242 381Q179 381 179 348Q179 344 180 340T185 333T191 327T200 322T210 317T221 313T233 310T246 306T258 303Q308 289 339 276Q430 241 430 152Z" />
<glyph unicode="t" glyph-name="t" horiz-adv-x="362" d="M336 116L350 8Q298 -10 232 -10Q154 -10 117 26Q78 62 78 145V364H14V475H77L86 594H231V475H347V364H231V179Q231 137 241 125Q254 109 285 109Q317 109 336 116Z" />
<glyph unicode="u" glyph-name="u" horiz-adv-x="563" d="M508 0H363L354 73Q294 -10 212 -10Q50 -10 50 175V475H204V204Q204 118 274 118Q309 118 329 142T354 200V475H508V0Z" />
<glyph unicode="v" glyph-name="v" horiz-adv-x="519" d="M521 475L340 0H179L-1 475H164L261 156L358 475H521Z" />
<glyph unicode="w" glyph-name="w" horiz-adv-x="774" d="M765 475L629 0H474L387 305L300 0H146L9 475H166L234 156L314 475H460L539 156L607 475H765Z" />
<glyph unicode="x" glyph-name="x" horiz-adv-x="509" d="M515 0H340L252 159L164 0H-6L159 241L4 475H175L257 322L339 475H505L350 241L515 0Z" />
<glyph unicode="y" glyph-name="y" horiz-adv-x="524" d="M526 475L335 -20Q301 -109 266 -141T168 -173Q132 -173 100 -167T52 -154L37 -148L69 -35Q99 -50 124 -50Q143 -50 153 -43T171 -14L181 15L4 475H169L266 152L363 475H526Z" />
<glyph unicode="z" glyph-name="z" horiz-adv-x="456" d="M442 0H14V92L248 364H24V475H432V380L205 116H442V0Z" />
<glyph unicode="{" glyph-name="braceleft" horiz-adv-x="361" d="M326 -72L320 -154L216 -148Q156 -145 131 -111T102 -17L94 108Q90 170 81 191T34 213H15V320H34Q50 320 60 325T76 335T85 358T90 386T93 425L102 550Q106 610 130 644T215 681L320 687L326 605L271
599Q249 597 239 587T226 564T221 521L212 385Q208 328 190 302T124 269V265Q172 259 190 232T212 149L220 12Q222 -16 224 -29T238 -52T270 -65L326 -72Z" />
<glyph unicode="|" glyph-name="bar" horiz-adv-x="355" d="M236 -137H119V686H236V-137Z" />
<glyph unicode="}" glyph-name="braceright" horiz-adv-x="361" d="M345 213H326Q290 213 281 192T267 109L258 -16Q254 -77 230 -110T145 -147L40 -154L35 -72L90 -66Q112 -64 122 -53T135 -30T140 12L149 148Q152 205 170 231T237 264V269Q188 275 170 301T149
385L140 521Q138 551 136 563T123 586T90 599L35 605L40 687L145 681Q205 678 229 644T258 550L267 425Q271 363 280 342T326 321H345V213Z" />
<glyph unicode="~" glyph-name="asciitilde" horiz-adv-x="569" d="M460 410L554 365Q498 206 383 206Q371 206 360 207T341 210T323 216T309 222T296 230T285 238T274 246T265 253Q263 255 257 260T248 267T239 274T229 281T219 286T208 291T197 294T184 295Q139
295 109 211L15 256Q71 415 186 415Q216 415 242 406T276 390T304 367Q307 365 315 358T327 348T339 340T354 333T368 328T385 326Q409 326 428 350T460 410Z" />
</font>
</defs>
</svg>
